<mxfile host="app.diagrams.net" modified="2022-05-24T08:32:43.553Z" agent="5.0 (X11)" etag="q2EMdVuNiJMtfEcvBPH-" version="18.1.1" type="github">
  <diagram id="C5RBs43oDa-KdzZeNtuy" name="Page-1">
    <mxGraphModel dx="2249" dy="759" grid="1" gridSize="10" guides="1" tooltips="1" connect="1" arrows="1" fold="1" page="1" pageScale="1" pageWidth="827" pageHeight="1169" math="0" shadow="0">
      <root>
        <mxCell id="WIyWlLk6GJQsqaUBKTNV-0" />
        <mxCell id="WIyWlLk6GJQsqaUBKTNV-1" parent="WIyWlLk6GJQsqaUBKTNV-0" />
        <mxCell id="Zq3hUtZiWWwdUONuJrPH-5" value="" style="edgeStyle=orthogonalEdgeStyle;rounded=0;orthogonalLoop=1;jettySize=auto;html=1;" parent="WIyWlLk6GJQsqaUBKTNV-1" source="WIyWlLk6GJQsqaUBKTNV-3" target="Zq3hUtZiWWwdUONuJrPH-1" edge="1">
          <mxGeometry relative="1" as="geometry" />
        </mxCell>
        <mxCell id="WIyWlLk6GJQsqaUBKTNV-3" value="Робимо вибірку оголошень по донору &lt;br&gt;&lt;div align=&quot;justify&quot;&gt;&lt;ul&gt;&lt;li&gt;Id(url)&lt;/li&gt;&lt;/ul&gt;&lt;/div&gt;" style="rounded=1;whiteSpace=wrap;html=1;fontSize=12;glass=0;strokeWidth=1;shadow=0;" parent="WIyWlLk6GJQsqaUBKTNV-1" vertex="1">
          <mxGeometry x="160" y="30" width="200" height="100" as="geometry" />
        </mxCell>
        <mxCell id="WIyWlLk6GJQsqaUBKTNV-4" value="Yes" style="rounded=0;html=1;jettySize=auto;orthogonalLoop=1;fontSize=11;endArrow=block;endFill=0;endSize=8;strokeWidth=1;shadow=0;labelBackgroundColor=none;edgeStyle=orthogonalEdgeStyle;" parent="WIyWlLk6GJQsqaUBKTNV-1" source="WIyWlLk6GJQsqaUBKTNV-6" target="WIyWlLk6GJQsqaUBKTNV-10" edge="1">
          <mxGeometry y="20" relative="1" as="geometry">
            <mxPoint as="offset" />
          </mxGeometry>
        </mxCell>
        <mxCell id="WIyWlLk6GJQsqaUBKTNV-5" value="No" style="edgeStyle=orthogonalEdgeStyle;rounded=0;html=1;jettySize=auto;orthogonalLoop=1;fontSize=11;endArrow=block;endFill=0;endSize=8;strokeWidth=1;shadow=0;labelBackgroundColor=none;" parent="WIyWlLk6GJQsqaUBKTNV-1" source="WIyWlLk6GJQsqaUBKTNV-6" edge="1">
          <mxGeometry y="10" relative="1" as="geometry">
            <mxPoint as="offset" />
            <mxPoint x="430" y="505" as="targetPoint" />
          </mxGeometry>
        </mxCell>
        <mxCell id="Zq3hUtZiWWwdUONuJrPH-12" value="" style="edgeStyle=orthogonalEdgeStyle;rounded=0;orthogonalLoop=1;jettySize=auto;html=1;" parent="WIyWlLk6GJQsqaUBKTNV-1" source="WIyWlLk6GJQsqaUBKTNV-6" target="Zq3hUtZiWWwdUONuJrPH-11" edge="1">
          <mxGeometry relative="1" as="geometry" />
        </mxCell>
        <mxCell id="WIyWlLk6GJQsqaUBKTNV-6" value="Оголошення активне" style="rhombus;whiteSpace=wrap;html=1;shadow=0;fontFamily=Helvetica;fontSize=12;align=center;strokeWidth=1;spacing=6;spacingTop=-4;" parent="WIyWlLk6GJQsqaUBKTNV-1" vertex="1">
          <mxGeometry x="191.25" y="450" width="137.5" height="110" as="geometry" />
        </mxCell>
        <mxCell id="Zq3hUtZiWWwdUONuJrPH-22" value="" style="edgeStyle=orthogonalEdgeStyle;rounded=0;orthogonalLoop=1;jettySize=auto;html=1;fontSize=11;" parent="WIyWlLk6GJQsqaUBKTNV-1" source="WIyWlLk6GJQsqaUBKTNV-10" target="Zq3hUtZiWWwdUONuJrPH-21" edge="1">
          <mxGeometry relative="1" as="geometry" />
        </mxCell>
        <mxCell id="Zq3hUtZiWWwdUONuJrPH-31" value="" style="edgeStyle=orthogonalEdgeStyle;rounded=0;orthogonalLoop=1;jettySize=auto;html=1;fontSize=11;" parent="WIyWlLk6GJQsqaUBKTNV-1" source="WIyWlLk6GJQsqaUBKTNV-10" target="Zq3hUtZiWWwdUONuJrPH-30" edge="1">
          <mxGeometry relative="1" as="geometry" />
        </mxCell>
        <mxCell id="WIyWlLk6GJQsqaUBKTNV-10" value="дані оголошення змінились" style="rhombus;whiteSpace=wrap;html=1;shadow=0;fontFamily=Helvetica;fontSize=12;align=center;strokeWidth=1;spacing=6;spacingTop=-4;" parent="WIyWlLk6GJQsqaUBKTNV-1" vertex="1">
          <mxGeometry x="30" y="580" width="120" height="120" as="geometry" />
        </mxCell>
        <mxCell id="Zq3hUtZiWWwdUONuJrPH-7" value="" style="edgeStyle=orthogonalEdgeStyle;rounded=0;orthogonalLoop=1;jettySize=auto;html=1;" parent="WIyWlLk6GJQsqaUBKTNV-1" source="Zq3hUtZiWWwdUONuJrPH-1" target="Zq3hUtZiWWwdUONuJrPH-6" edge="1">
          <mxGeometry relative="1" as="geometry" />
        </mxCell>
        <mxCell id="Zq3hUtZiWWwdUONuJrPH-1" value="відправляємо на Zenoposter" style="rounded=0;whiteSpace=wrap;html=1;" parent="WIyWlLk6GJQsqaUBKTNV-1" vertex="1">
          <mxGeometry x="200" y="170" width="120" height="60" as="geometry" />
        </mxCell>
        <mxCell id="Zq3hUtZiWWwdUONuJrPH-9" value="" style="edgeStyle=orthogonalEdgeStyle;rounded=0;orthogonalLoop=1;jettySize=auto;html=1;" parent="WIyWlLk6GJQsqaUBKTNV-1" source="Zq3hUtZiWWwdUONuJrPH-6" target="Zq3hUtZiWWwdUONuJrPH-8" edge="1">
          <mxGeometry relative="1" as="geometry" />
        </mxCell>
        <mxCell id="Zq3hUtZiWWwdUONuJrPH-6" value="Отримуємо пакет даних" style="rounded=0;whiteSpace=wrap;html=1;" parent="WIyWlLk6GJQsqaUBKTNV-1" vertex="1">
          <mxGeometry x="200" y="260" width="120" height="60" as="geometry" />
        </mxCell>
        <mxCell id="Zq3hUtZiWWwdUONuJrPH-10" value="" style="edgeStyle=orthogonalEdgeStyle;rounded=0;orthogonalLoop=1;jettySize=auto;html=1;" parent="WIyWlLk6GJQsqaUBKTNV-1" source="Zq3hUtZiWWwdUONuJrPH-8" target="WIyWlLk6GJQsqaUBKTNV-6" edge="1">
          <mxGeometry relative="1" as="geometry" />
        </mxCell>
        <mxCell id="Zq3hUtZiWWwdUONuJrPH-8" value="Отримуємо пакет даних" style="rounded=0;whiteSpace=wrap;html=1;" parent="WIyWlLk6GJQsqaUBKTNV-1" vertex="1">
          <mxGeometry x="200" y="350" width="120" height="60" as="geometry" />
        </mxCell>
        <mxCell id="Zq3hUtZiWWwdUONuJrPH-14" value="" style="edgeStyle=orthogonalEdgeStyle;rounded=0;orthogonalLoop=1;jettySize=auto;html=1;fontSize=10;" parent="WIyWlLk6GJQsqaUBKTNV-1" source="Zq3hUtZiWWwdUONuJrPH-11" edge="1">
          <mxGeometry relative="1" as="geometry">
            <mxPoint x="647.5" y="505" as="targetPoint" />
          </mxGeometry>
        </mxCell>
        <mxCell id="Zq3hUtZiWWwdUONuJrPH-17" value="" style="edgeStyle=orthogonalEdgeStyle;rounded=0;orthogonalLoop=1;jettySize=auto;html=1;fontSize=10;" parent="WIyWlLk6GJQsqaUBKTNV-1" source="Zq3hUtZiWWwdUONuJrPH-11" target="WIyWlLk6GJQsqaUBKTNV-10" edge="1">
          <mxGeometry relative="1" as="geometry">
            <mxPoint x="90" y="570" as="targetPoint" />
            <Array as="points">
              <mxPoint x="499" y="580" />
            </Array>
          </mxGeometry>
        </mxCell>
        <mxCell id="Zq3hUtZiWWwdUONuJrPH-11" value="&lt;blockquote&gt;&lt;div align=&quot;center&quot;&gt;&lt;font style=&quot;font-size: 10px; line-height: 1;&quot;&gt;Оголошення давніше 10 хвилин&lt;/font&gt;&lt;/div&gt;&lt;/blockquote&gt;" style="rhombus;whiteSpace=wrap;html=1;shadow=0;fontFamily=Helvetica;fontSize=12;align=center;strokeWidth=1;spacing=6;spacingTop=-4;" parent="WIyWlLk6GJQsqaUBKTNV-1" vertex="1">
          <mxGeometry x="430" y="450" width="137.5" height="110" as="geometry" />
        </mxCell>
        <mxCell id="Zq3hUtZiWWwdUONuJrPH-15" value="Yes" style="text;html=1;align=center;verticalAlign=middle;resizable=0;points=[];autosize=1;strokeColor=none;fillColor=none;fontSize=10;" parent="WIyWlLk6GJQsqaUBKTNV-1" vertex="1">
          <mxGeometry x="595" y="480" width="30" height="20" as="geometry" />
        </mxCell>
        <mxCell id="Zq3hUtZiWWwdUONuJrPH-18" value="&lt;div&gt;No&lt;/div&gt;" style="text;html=1;align=center;verticalAlign=middle;resizable=0;points=[];autosize=1;strokeColor=none;fillColor=none;fontSize=10;" parent="WIyWlLk6GJQsqaUBKTNV-1" vertex="1">
          <mxGeometry x="460" y="560" width="30" height="20" as="geometry" />
        </mxCell>
        <mxCell id="Zq3hUtZiWWwdUONuJrPH-19" value="Міняємо статус &lt;br&gt;на &lt;font style=&quot;font-size: 11px;&quot;&gt;&lt;b&gt;модерації&lt;/b&gt;&lt;/font&gt;" style="shape=hexagon;perimeter=hexagonPerimeter2;whiteSpace=wrap;html=1;fixedSize=1;fontSize=10;" parent="WIyWlLk6GJQsqaUBKTNV-1" vertex="1">
          <mxGeometry x="630" y="465" width="120" height="80" as="geometry" />
        </mxCell>
        <mxCell id="Zq3hUtZiWWwdUONuJrPH-21" value="&lt;b&gt;END&lt;/b&gt;" style="rhombus;whiteSpace=wrap;html=1;shadow=0;fontFamily=Helvetica;fontSize=12;align=center;strokeWidth=1;spacing=6;spacingTop=-4;" parent="WIyWlLk6GJQsqaUBKTNV-1" vertex="1">
          <mxGeometry x="260" y="600" width="100" height="80" as="geometry" />
        </mxCell>
        <mxCell id="Zq3hUtZiWWwdUONuJrPH-23" value="No" style="text;html=1;align=center;verticalAlign=middle;resizable=0;points=[];autosize=1;strokeColor=none;fillColor=none;fontSize=11;" parent="WIyWlLk6GJQsqaUBKTNV-1" vertex="1">
          <mxGeometry x="155" y="610" width="30" height="20" as="geometry" />
        </mxCell>
        <mxCell id="Zq3hUtZiWWwdUONuJrPH-26" value="&lt;div&gt;&lt;b&gt;Yes&lt;/b&gt;&lt;/div&gt;" style="text;html=1;align=center;verticalAlign=middle;resizable=0;points=[];autosize=1;strokeColor=none;fillColor=none;fontSize=11;" parent="WIyWlLk6GJQsqaUBKTNV-1" vertex="1">
          <mxGeometry x="50" y="700" width="30" height="20" as="geometry" />
        </mxCell>
        <mxCell id="Zq3hUtZiWWwdUONuJrPH-33" value="" style="edgeStyle=orthogonalEdgeStyle;rounded=0;orthogonalLoop=1;jettySize=auto;html=1;fontSize=11;" parent="WIyWlLk6GJQsqaUBKTNV-1" source="Zq3hUtZiWWwdUONuJrPH-30" edge="1">
          <mxGeometry relative="1" as="geometry">
            <mxPoint x="-50" y="840" as="targetPoint" />
          </mxGeometry>
        </mxCell>
        <mxCell id="Zq3hUtZiWWwdUONuJrPH-37" value="" style="edgeStyle=orthogonalEdgeStyle;rounded=0;orthogonalLoop=1;jettySize=auto;html=1;fontSize=11;" parent="WIyWlLk6GJQsqaUBKTNV-1" source="Zq3hUtZiWWwdUONuJrPH-30" target="Zq3hUtZiWWwdUONuJrPH-36" edge="1">
          <mxGeometry relative="1" as="geometry" />
        </mxCell>
        <mxCell id="Zq3hUtZiWWwdUONuJrPH-45" value="" style="edgeStyle=orthogonalEdgeStyle;rounded=0;orthogonalLoop=1;jettySize=auto;html=1;fontSize=13;" parent="WIyWlLk6GJQsqaUBKTNV-1" source="Zq3hUtZiWWwdUONuJrPH-30" target="Zq3hUtZiWWwdUONuJrPH-44" edge="1">
          <mxGeometry relative="1" as="geometry" />
        </mxCell>
        <mxCell id="Zq3hUtZiWWwdUONuJrPH-53" value="" style="edgeStyle=orthogonalEdgeStyle;rounded=0;orthogonalLoop=1;jettySize=auto;html=1;fontSize=9;entryX=0;entryY=0.5;entryDx=0;entryDy=0;" parent="WIyWlLk6GJQsqaUBKTNV-1" source="Zq3hUtZiWWwdUONuJrPH-30" target="Zq3hUtZiWWwdUONuJrPH-39" edge="1">
          <mxGeometry relative="1" as="geometry">
            <mxPoint x="230" y="840" as="targetPoint" />
          </mxGeometry>
        </mxCell>
        <mxCell id="Zq3hUtZiWWwdUONuJrPH-30" value="перевіряємо що змінилось" style="rhombus;whiteSpace=wrap;html=1;shadow=0;fontFamily=Helvetica;fontSize=12;align=center;strokeWidth=1;spacing=6;spacingTop=-4;" parent="WIyWlLk6GJQsqaUBKTNV-1" vertex="1">
          <mxGeometry x="140" y="780" width="120" height="120" as="geometry" />
        </mxCell>
        <mxCell id="Zq3hUtZiWWwdUONuJrPH-54" value="" style="edgeStyle=orthogonalEdgeStyle;rounded=0;orthogonalLoop=1;jettySize=auto;html=1;fontSize=9;" parent="WIyWlLk6GJQsqaUBKTNV-1" source="Zq3hUtZiWWwdUONuJrPH-36" target="Zq3hUtZiWWwdUONuJrPH-47" edge="1">
          <mxGeometry relative="1" as="geometry" />
        </mxCell>
        <mxCell id="Zq3hUtZiWWwdUONuJrPH-36" value="&lt;div style=&quot;font-size: 9px;&quot;&gt;Пишемо нові дані в sorceData оголошення&lt;/div&gt;" style="rhombus;whiteSpace=wrap;html=1;shadow=0;fontFamily=Helvetica;fontSize=12;align=center;strokeWidth=1;spacing=6;spacingTop=-4;" parent="WIyWlLk6GJQsqaUBKTNV-1" vertex="1">
          <mxGeometry x="40" y="1020" width="120" height="120" as="geometry" />
        </mxCell>
        <mxCell id="Zq3hUtZiWWwdUONuJrPH-38" value="&lt;font size=&quot;1&quot;&gt;&lt;b style=&quot;font-size: 13px;&quot;&gt;Price&lt;/b&gt;&lt;/font&gt;" style="text;html=1;align=center;verticalAlign=middle;resizable=0;points=[];autosize=1;strokeColor=none;fillColor=none;fontSize=11;" parent="WIyWlLk6GJQsqaUBKTNV-1" vertex="1">
          <mxGeometry x="260" y="800" width="50" height="20" as="geometry" />
        </mxCell>
        <mxCell id="Zq3hUtZiWWwdUONuJrPH-41" value="" style="edgeStyle=orthogonalEdgeStyle;rounded=0;orthogonalLoop=1;jettySize=auto;html=1;fontSize=13;" parent="WIyWlLk6GJQsqaUBKTNV-1" source="Zq3hUtZiWWwdUONuJrPH-39" target="Zq3hUtZiWWwdUONuJrPH-40" edge="1">
          <mxGeometry relative="1" as="geometry" />
        </mxCell>
        <mxCell id="Zq3hUtZiWWwdUONuJrPH-39" value="Створюємо новий priceData" style="shape=hexagon;perimeter=hexagonPerimeter2;whiteSpace=wrap;html=1;fixedSize=1;fontSize=13;" parent="WIyWlLk6GJQsqaUBKTNV-1" vertex="1">
          <mxGeometry x="330" y="800" width="120" height="80" as="geometry" />
        </mxCell>
        <mxCell id="Zq3hUtZiWWwdUONuJrPH-43" value="" style="edgeStyle=orthogonalEdgeStyle;rounded=0;orthogonalLoop=1;jettySize=auto;html=1;fontSize=13;" parent="WIyWlLk6GJQsqaUBKTNV-1" source="Zq3hUtZiWWwdUONuJrPH-40" target="Zq3hUtZiWWwdUONuJrPH-42" edge="1">
          <mxGeometry relative="1" as="geometry" />
        </mxCell>
        <mxCell id="Zq3hUtZiWWwdUONuJrPH-40" value="Додаємо до оголошення" style="shape=hexagon;perimeter=hexagonPerimeter2;whiteSpace=wrap;html=1;fixedSize=1;fontSize=13;" parent="WIyWlLk6GJQsqaUBKTNV-1" vertex="1">
          <mxGeometry x="330" y="940" width="120" height="80" as="geometry" />
        </mxCell>
        <mxCell id="Zq3hUtZiWWwdUONuJrPH-42" value="&lt;b&gt;END&lt;/b&gt;" style="rhombus;whiteSpace=wrap;html=1;fontSize=13;" parent="WIyWlLk6GJQsqaUBKTNV-1" vertex="1">
          <mxGeometry x="220" y="1040" width="80" height="80" as="geometry" />
        </mxCell>
        <mxCell id="Zq3hUtZiWWwdUONuJrPH-48" value="" style="edgeStyle=orthogonalEdgeStyle;rounded=0;orthogonalLoop=1;jettySize=auto;html=1;fontSize=9;" parent="WIyWlLk6GJQsqaUBKTNV-1" source="Zq3hUtZiWWwdUONuJrPH-44" target="Zq3hUtZiWWwdUONuJrPH-47" edge="1">
          <mxGeometry relative="1" as="geometry" />
        </mxCell>
        <mxCell id="Zq3hUtZiWWwdUONuJrPH-44" value="&lt;div&gt;Створюємо новий updateEvent вказуємо що змінилось&lt;/div&gt;" style="whiteSpace=wrap;html=1;shadow=0;strokeWidth=1;spacing=6;spacingTop=-4;" parent="WIyWlLk6GJQsqaUBKTNV-1" vertex="1">
          <mxGeometry x="-70" y="810" width="120" height="60" as="geometry" />
        </mxCell>
        <mxCell id="Zq3hUtZiWWwdUONuJrPH-47" value="&lt;b&gt;END&lt;/b&gt;" style="ellipse;whiteSpace=wrap;html=1;shadow=0;strokeWidth=1;spacing=6;spacingTop=-4;" parent="WIyWlLk6GJQsqaUBKTNV-1" vertex="1">
          <mxGeometry x="-110" y="950" width="120" height="60" as="geometry" />
        </mxCell>
        <mxCell id="-Ed71MwEj80D3cBsqbGH-2" value="&lt;h1&gt;&lt;span style=&quot;font-weight: normal;&quot;&gt;&lt;font style=&quot;font-size: 19px; line-height: 0.5;&quot;&gt;що могло змінитись&lt;/font&gt;&lt;/span&gt;&lt;br&gt;&lt;/h1&gt;&lt;ol&gt;&lt;li&gt;ціна &lt;br&gt;&lt;/li&gt;&lt;li&gt;текст оголошення&lt;/li&gt;&lt;li&gt;телефон&lt;/li&gt;&lt;li&gt;кількість додавань в закладки&lt;/li&gt;&lt;li&gt;кількість переглядів&lt;br&gt;&lt;/li&gt;&lt;/ol&gt;" style="text;html=1;strokeColor=none;fillColor=none;spacing=5;spacingTop=-20;whiteSpace=wrap;overflow=hidden;rounded=0;" vertex="1" parent="WIyWlLk6GJQsqaUBKTNV-1">
          <mxGeometry x="-210" y="555" width="190" height="170" as="geometry" />
        </mxCell>
      </root>
    </mxGraphModel>
  </diagram>
</mxfile>
